<mxfile host="65bd71144e">
    <diagram id="GvBSayN1yEii2PA9c4X9" name="Page-1">
        <mxGraphModel dx="1112" dy="1027" grid="1" gridSize="10" guides="1" tooltips="1" connect="1" arrows="1" fold="1" page="1" pageScale="1" pageWidth="1200" pageHeight="1920" math="0" shadow="0">
            <root>
                <mxCell id="0"/>
                <mxCell id="1" parent="0"/>
                <mxCell id="4" value="" style="rounded=1;whiteSpace=wrap;html=1;" vertex="1" parent="1">
                    <mxGeometry x="900" y="590" width="850" height="190" as="geometry"/>
                </mxCell>
                <mxCell id="7" value="&lt;font style=&quot;font-size: 32px;&quot;&gt;Robert Sprouse&lt;/font&gt;" style="strokeWidth=1;shadow=0;dashed=0;align=left;html=1;shape=mxgraph.mockup.text.textBox;fontColor=#666666;align=left;fontSize=30;spacingLeft=4;spacingTop=-3;strokeColor=#666666;mainText=" vertex="1" parent="1">
                    <mxGeometry x="1185" y="641.75" width="280" height="58.25" as="geometry"/>
                </mxCell>
                <mxCell id="12" value="" style="fillColor=#36B37E;strokeColor=none;rounded=1;arcSize=50;sketch=0;hachureGap=4;pointerEvents=0;fontFamily=Architects Daughter;fontSource=https%3A%2F%2Ffonts.googleapis.com%2Fcss%3Ffamily%3DArchitects%2BDaughter;fontSize=20;" vertex="1" parent="1">
                    <mxGeometry x="1654.43" y="610" width="50" height="20" as="geometry"/>
                </mxCell>
                <mxCell id="13" value="" style="shape=ellipse;strokeColor=none;fillColor=#ffffff;sketch=0;hachureGap=4;pointerEvents=0;fontFamily=Architects Daughter;fontSource=https%3A%2F%2Ffonts.googleapis.com%2Fcss%3Ffamily%3DArchitects%2BDaughter;fontSize=20;" vertex="1" parent="12">
                    <mxGeometry x="1" y="0.5" width="16" height="16" relative="1" as="geometry">
                        <mxPoint x="-18" y="-8" as="offset"/>
                    </mxGeometry>
                </mxCell>
                <mxCell id="14" value="" style="html=1;shadow=0;dashed=0;shape=mxgraph.atlassian.check;strokeColor=#ffffff;strokeWidth=2;sketch=1;hachureGap=4;pointerEvents=0;fontFamily=Architects Daughter;fontSource=https%3A%2F%2Ffonts.googleapis.com%2Fcss%3Ffamily%3DArchitects%2BDaughter;fontSize=20;" vertex="1" parent="12">
                    <mxGeometry y="0.5" width="10" height="8" relative="1" as="geometry">
                        <mxPoint x="6" y="-5" as="offset"/>
                    </mxGeometry>
                </mxCell>
                <mxCell id="31" value="RobSprouse@Github.com" style="text;html=1;strokeColor=none;fillColor=none;align=center;verticalAlign=middle;whiteSpace=wrap;rounded=0;fontSize=16;" vertex="1" parent="1">
                    <mxGeometry x="1110" y="710" width="185" height="23.25" as="geometry"/>
                </mxCell>
                <mxCell id="35" value="" style="strokeWidth=1;shadow=0;dashed=0;align=center;html=1;shape=mxgraph.mockup.containers.marginRect2;rectMarginTop=32;strokeColor=#666666;gradientColor=none;fontSize=16;" vertex="1" parent="1">
                    <mxGeometry x="900" y="750" width="850" height="630" as="geometry"/>
                </mxCell>
                <mxCell id="36" value="Tab 1" style="strokeColor=inherit;fillColor=inherit;gradientColor=inherit;strokeWidth=1;shadow=0;dashed=0;align=center;html=1;shape=mxgraph.mockup.containers.rrect;rSize=0;fontSize=17;fontColor=#666666;gradientColor=none;" vertex="1" parent="35">
                    <mxGeometry width="60" height="25" relative="1" as="geometry">
                        <mxPoint x="300" as="offset"/>
                    </mxGeometry>
                </mxCell>
                <mxCell id="37" value="Tab 2" style="strokeWidth=1;shadow=0;dashed=0;align=center;html=1;shape=mxgraph.mockup.containers.rrect;rSize=0;fontSize=17;fontColor=#ffffff;strokeColor=#008cff;fillColor=#008cff;" vertex="1" parent="35">
                    <mxGeometry width="60" height="25" relative="1" as="geometry">
                        <mxPoint x="395" as="offset"/>
                    </mxGeometry>
                </mxCell>
                <mxCell id="38" value="Tab 3" style="strokeColor=inherit;fillColor=inherit;gradientColor=inherit;strokeWidth=1;shadow=0;dashed=0;align=center;html=1;shape=mxgraph.mockup.containers.rrect;rSize=0;fontSize=17;fontColor=#666666;gradientColor=none;" vertex="1" parent="35">
                    <mxGeometry width="60" height="25" relative="1" as="geometry">
                        <mxPoint x="490" as="offset"/>
                    </mxGeometry>
                </mxCell>
                <mxCell id="39" value="" style="strokeWidth=1;shadow=0;dashed=0;align=center;html=1;shape=mxgraph.mockup.containers.topButton;rSize=5;strokeColor=#008cff;fillColor=#008cff;gradientColor=none;resizeWidth=1;movable=0;deletable=1;fontSize=16;" vertex="1" parent="35">
                    <mxGeometry width="850" height="7" relative="1" as="geometry">
                        <mxPoint y="25" as="offset"/>
                    </mxGeometry>
                </mxCell>
                <mxCell id="41" value="" style="rounded=1;whiteSpace=wrap;html=1;fontSize=16;fillColor=#07061D;" vertex="1" parent="1">
                    <mxGeometry x="910" y="610" width="130" height="130" as="geometry"/>
                </mxCell>
                <mxCell id="42" value="DrgStriker@aol.com" style="text;html=1;strokeColor=none;fillColor=none;align=center;verticalAlign=middle;whiteSpace=wrap;rounded=0;fontSize=16;" vertex="1" parent="1">
                    <mxGeometry x="1340" y="710" width="185" height="23.25" as="geometry"/>
                </mxCell>
                <mxCell id="43" value="" style="shape=image;html=1;verticalLabelPosition=bottom;verticalAlign=top;imageAspect=1;aspect=fixed;image=img/clipart/Gear_128x128.png;fontSize=32;fillColor=#07061D;" vertex="1" parent="1">
                    <mxGeometry x="1620" y="604.5" width="26.43" height="31" as="geometry"/>
                </mxCell>
                <mxCell id="45" value="" style="shape=image;html=1;verticalLabelPosition=bottom;verticalAlign=top;imageAspect=1;aspect=fixed;image=img/clipart/Gear_128x128.png;fontSize=32;fillColor=#07061D;" vertex="1" parent="1">
                    <mxGeometry x="1710" y="604.5" width="26.43" height="31" as="geometry"/>
                </mxCell>
            </root>
        </mxGraphModel>
    </diagram>
</mxfile>